<?xml version="1.0" encoding="utf-8"?>
<!-- Generator: Adobe Illustrator 19.2.1, SVG Export Plug-In . SVG Version: 6.00 Build 0)  -->
<svg version="1.1" id="Layer_1" xmlns="http://www.w3.org/2000/svg" xmlns:xlink="http://www.w3.org/1999/xlink" x="0px" y="0px"
	 viewBox="0 0 800 100" style="enable-background:new 0 0 800 100;" xml:space="preserve" width="800px" height="100px">
<style type="text/css">
	.st0{fill-rule:evenodd;clip-rule:evenodd;}
	.st1{fill:#231F20;}
</style>
<path class="st0" d="M375.3,44.3c-0.3-1.7-0.9-3.3-1.5-4.9c-0.7-1.6-1.5-3.1-2.4-4.5c-0.9-1.4-2-2.7-3.2-3.9
	c-1.2-1.2-2.5-2.3-3.9-3.2c-1.4-1-2.9-1.8-4.5-2.4c-1.6-0.7-3.2-1.2-4.9-1.5c-1.7-0.4-3.5-0.5-5.3-0.5c-1.8,0-3.6,0.2-5.3,0.5
	c-1.7,0.3-3.3,0.9-4.9,1.5c-1.6,0.7-3.1,1.5-4.5,2.4c-1.4,0.9-2.7,2-3.9,3.2c-1.2,1.2-2.3,2.5-3.2,3.9c-0.9,1.4-1.8,2.9-2.4,4.5
	c-0.7,1.6-1.2,3.3-1.5,4.9c-0.4,1.7-0.5,3.5-0.5,5.3c0,1.8,0.2,3.6,0.5,5.3c0.3,1.7,0.9,3.3,1.5,4.9c0.7,1.6,1.5,3.1,2.4,4.5
	c0.9,1.4,2,2.7,3.2,3.9c1.2,1.2,2.5,2.3,3.9,3.2c1.4,0.9,2.9,1.8,4.5,2.4c1.6,0.7,3.2,1.2,4.9,1.5c1.7,0.4,3.5,0.5,5.3,0.5
	c1.8,0,3.6-0.2,5.3-0.5c1.7-0.3,3.4-0.9,4.9-1.5c1.6-0.7,3.1-1.5,4.5-2.4c1.4-0.9,2.7-2,3.9-3.2c1.2-1.2,2.3-2.5,3.2-3.9
	c0.9-1.4,1.8-2.9,2.4-4.5c0.7-1.6,1.2-3.2,1.5-4.9c0.4-1.7,0.5-3.5,0.5-5.3C375.8,47.8,375.6,46,375.3,44.3z M372,49.4
	c-0.3-0.1-7.9-1.7-15.6-0.7c-0.2-0.4-0.3-0.8-0.5-1.2c-0.5-1.1-1-2.2-1.5-3.3c8.9-3.6,12.5-8.8,12.5-8.9C370,39.2,371.9,44,372,49.4
	z M364.4,32.7c-0.1,0.1-3.3,5-11.7,8.1c-3.8-7-8-12.6-8.4-13.1c1.7-0.4,3.5-0.6,5.3-0.6C355.2,27.1,360.4,29.3,364.4,32.7z
	 M344.2,27.8C344.2,27.8,344.2,27.8,344.2,27.8C344.2,27.8,344.1,27.8,344.2,27.8C344.1,27.8,344.1,27.8,344.2,27.8z M340,29.3
	c0.3,0.4,4.4,6,8.3,12.9c-10.8,2.9-20.1,2.7-20.7,2.7C329,38,333.7,32.2,340,29.3z M327.1,49.6c0-0.2,0-0.5,0-0.7
	c0.4,0,11.5,0.3,23-3.2c0.6,1.3,1.3,2.5,1.8,3.8c-0.3,0.1-0.6,0.2-0.9,0.3c-12.1,3.9-18.2,14.8-18.2,14.8s0,0,0,0
	C329.3,60.6,327.1,55.3,327.1,49.6z M349.5,72c-5.4,0-10.4-1.9-14.3-5.1c0.3,0.2,0.5,0.4,0.5,0.4s4.3-9.4,17.6-14c0,0,0.1,0,0.1,0
	c3.2,8.2,4.5,15.1,4.8,17C355.6,71.4,352.6,72,349.5,72z M362.1,68.2c-0.2-1.4-1.4-7.9-4.4-16c7.2-1.2,13.5,0.8,14,1
	C370.7,59.4,367.1,64.8,362.1,68.2z"/>
<g>
	<path d="M525.5,35.6c4.9,4.2,18.7,15.1,24.1,15.1c5.4,0,19.1-10.8,24-15.1c-0.5-0.9-1.5-1.6-2.6-1.6H528
		C526.9,34.1,526,34.7,525.5,35.6L525.5,35.6z"/>
	<g>
		<path d="M574,61.9V39.3c-3.3,2.8-10.5,8.5-16.8,11.9L574,61.9z"/>
		<path d="M542.1,51c-6.4-3.4-13.8-9.3-17-12V62L542.1,51z"/>
		<path d="M554,52.6c-1.7,0.7-3.2,1.1-4.4,1.1c-1.3,0-2.8-0.4-4.4-1.1l-19.2,12.5c0.5,0.5,1.2,0.8,2,0.8h43c0.8,0,1.5-0.3,2.1-0.9
			L554,52.6z"/>
	</g>
</g>
<g id="Layer_1_2_">
	<path d="M266.4,25.6c1.2,0,2.2,0.2,3,0.6c1,0.4,1.8,1,2.4,1.6c0.6,0.6,1.2,1.4,1.6,2.4c0.4,1,0.6,2,0.6,3v8.4l-12.4-0.2
		c-0.6-0.8-1.4-1.8-2.4-2.6c-1-0.8-1.8-1.4-3-2c-1-0.4-2.2-1-3.2-1.2c-1.2-0.4-2.4-0.6-3.6-0.4c-1.2,0-2.4,0-3.6,0.4
		c-1.2,0.4-2.2,0.8-3.2,1.2c-1,0.4-2,1.2-3,2c-0.8,0.8-1.6,1.6-2.4,2.6l-12.4,0.2v-8.4c0-1,0.2-2,0.6-3c0.4-1,1-1.8,1.6-2.4
		c0.6-0.6,1.4-1.2,2.4-1.6c1-0.4,2-0.6,3-0.6H266.4L266.4,25.6z M264.4,50.2c0-0.4,0-0.6,0-0.8c0-0.2,0-0.4,0-0.8
		c0-0.2,0-0.6-0.2-0.8s0-0.4,0-0.8l10,0.2v19.6c0,1.2-0.2,2.2-0.6,3c-0.4,0.8-1,1.8-1.6,2.4c-0.6,0.8-1.4,1.4-2.4,1.6
		c-1,0.2-2,0.6-3,0.6l-33.7-0.2c-1.2,0-2.2-0.2-3-0.6c-1-0.4-1.8-1-2.4-1.6s-1.2-1.4-1.6-2.4c-0.4-1-0.6-2-0.6-3V46.8l10,0.2
		c0,0.2,0,0.4,0,0.6c0,0.2,0,0.6-0.2,0.8c0,0.2,0,0.4,0,0.8c0,0.4,0,0.6,0,0.8c0,2,0.4,4,1.2,5.8s1.8,3.4,3.2,4.8s3,2.4,4.6,3.2
		c1.8,0.8,3.8,1.2,5.8,1.2s4-0.4,5.8-1.2c1.8-0.8,3.4-1.8,4.6-3.2c1.2-1.4,2.4-3,3.2-4.8C264,54.2,264.4,52.2,264.4,50.2L264.4,50.2
		z M258.6,50.2c0,1.2-0.2,2.4-0.8,3.4c-0.4,1.2-1.2,2-2,3c-0.8,0.8-1.8,1.4-3,2c-1.2,0.6-2.4,0.8-3.6,0.6c-1.2,0-2.4-0.2-3.6-0.6
		c-1.2-0.6-2-1.2-3-2c-0.8-0.8-1.4-1.8-2-3c-0.4-1.2-0.8-2.2-0.8-3.4c0-1.4,0.2-2.6,0.8-3.6c0.4-1,1.2-2,2-3c0.8-0.8,1.8-1.6,3-2
		c1.2-0.4,2.4-0.8,3.6-0.8c1.2,0,2.4,0.4,3.6,0.8c1.2,0.4,2,1,3,2c0.8,0.8,1.4,1.8,2,3C258.4,47.8,258.6,49,258.6,50.2z M270.2,35
		v-4c0-0.2,0-0.6-0.2-0.6c0-0.2-0.2-0.2-0.2-0.4c-0.2-0.2-0.2-0.2-0.4-0.4c-0.2,0-0.4,0-0.6-0.2l-4.2,0.2c-0.2,0-0.4,0-0.6,0
		c-0.2,0.2-0.2,0.2-0.4,0.4c-0.2,0.2-0.2,0.2-0.2,0.4c0,0.2-0.2,0.4-0.2,0.6v4.2c0,0.2,0,0.4,0.2,0.6c0,0.2,0.2,0.4,0.2,0.4
		c0.2,0.2,0.2,0.2,0.4,0.4c0.2,0.2,0.4,0.2,0.6,0l4.2,0.2c0.2,0,0.4-0.2,0.6-0.2s0.4-0.2,0.4-0.4c0.2-0.2,0.2-0.4,0.2-0.4
		C270,35.4,270.2,35.2,270.2,35z"/>
</g>
<path d="M37,41.6h5.4v-5.2c0-2.3,0.1-5.9,1.7-8.1c1.8-2.3,4.2-3.9,8.4-3.9c6.8,0,9.7,1,9.7,1l-1.3,8c0,0-2.2-0.6-4.3-0.6
	c-2.1,0-4,0.8-4,2.8v6.1H61l-0.6,7.8h-8v27.1H42.3V49.4H37V41.6z"/>
<path d="M175,34.2c-1.9,0.8-3.9,1.4-6,1.6c2.2-1.3,3.8-3.3,4.6-5.8c-2,1.2-4.3,2.1-6.6,2.5c-1.9-2-4.6-3.3-7.6-3.3
	c-5.8,0-10.5,4.7-10.5,10.5c0,0.8,0.1,1.6,0.3,2.4c-8.7-0.4-16.4-4.6-21.6-10.9c-0.9,1.5-1.4,3.3-1.4,5.3c0,3.6,1.8,6.8,4.7,8.7
	c-1.7-0.1-3.3-0.5-4.7-1.3V44c0,5.1,3.6,9.3,8.4,10.3c-0.9,0.2-1.8,0.4-2.8,0.4c-0.7,0-1.3-0.1-2-0.2c1.3,4.2,5.2,7.2,9.8,7.3
	c-3.6,2.8-8.1,4.5-13,4.5c-0.8,0-1.7,0-2.5-0.1c4.6,3,10.1,4.7,16,4.7c19.2,0,29.8-15.9,29.8-29.8c0-0.5,0-0.9,0-1.4
	C171.8,38.1,173.6,36.3,175,34.2"/>
<path d="M738.4,67.8h-7.7V43h7.7V67.8z M734.3,39.9L734.3,39.9c-2.9,0-4.7-1.9-4.7-4.3c0-2.4,1.9-4.3,4.7-4.3c2.9,0,4.6,1.9,4.7,4.3
	C739.1,38,737.3,39.9,734.3,39.9z M769.4,67.8h-8.8V54.9c0-3.4-1.4-5.6-4.4-5.6c-2.3,0-3.6,1.5-4.2,3c-0.2,0.5-0.2,1.3-0.2,2v13.4
	h-8.7c0,0,0.1-22.7,0-24.8h8.7v3.9c0.5-1.7,3.3-4.1,7.7-4.1c5.5,0,9.8,3.6,9.8,11.2V67.8z"/>
<g>
	<path class="st1" d="M674.2,36.2l-15.9-7.9c-0.1,0-0.2-0.1-0.2-0.1c0,0,0,0,0,0c-0.2,0-0.4,0.1-0.5,0.3l-9.8,15.9l10.9,17.8
		l15.6-25.4C674.5,36.5,674.4,36.3,674.2,36.2z"/>
	<polygon class="st1" points="642.7,38.8 642.7,55.9 657.9,63.5 	"/>
	<path class="st1" d="M659.2,64.2l14,7c0.8,0.4,1.4,0,1.4-0.9V39.2L659.2,64.2z"/>
	<path class="st1" d="M641,36.3L626.3,29l-0.9-0.5c-0.1-0.1-0.3-0.1-0.4-0.1c-0.2,0-0.3,0.1-0.4,0.2c-0.1,0.1-0.2,0.3-0.2,0.5v33.4
		c0,0.6,0.4,1.2,0.9,1.5l14.4,7.2c0.2,0.1,0.4,0.1,0.6,0.1c0.5,0,0.8-0.4,0.8-1V36.6C641.2,36.5,641.1,36.3,641,36.3z"/>
</g>
<g>
	<path d="M471.5,40c0.8,0.8,1.4,1.6,1.8,2.2c0.4,0.8,1,1.6,1.4,2.6c0.4,1,0.8,1.8,0.8,3c0.2,1,0.4,2.2,0.4,3.2c0,5.2-1,9.2-2.8,12
		c-1.8,2.8-4,5-6.4,6.2c-2.4,1.4-4.8,2.2-7.2,2.4c-2.4,0.2-4,0.4-5.2,0.4c-0.2,0-0.4,0-0.8,0s-0.8,0-1.2,0s-0.8,0-1.4,0s-1,0-1.4,0
		c-0.6,0-1.2,0-1.6,0c-0.4,0-1,0-1.4,0s-0.8,0-1.2,0c-0.2,0-0.6,0-0.8,0c-1,0-2.8-0.2-5.2-0.4c-2.4-0.2-4.8-1-7.2-2.4
		c-2.4-1.4-4.6-3.4-6.4-6.2c-1.8-2.8-2.8-6.8-2.6-12c0-1.2,0-2.2,0.2-3.2s0.6-2,0.8-3c0.4-1,0.8-1.8,1.4-2.6s1.2-1.6,1.8-2.2
		c0-0.2-0.2-0.8-0.2-1.6c0-0.8,0-1.8,0.2-3c0.2-1.2,0.4-2.4,0.6-3.8c0.2-1.4,0.8-2.8,1.4-4.2c0,0,0.2,0,0.8,0.2
		c0.6,0.2,1.6,0.4,2.6,0.8s2.4,1,4,1.8s3.4,1.8,5.2,3.2c0.6,0,1-0.2,1.6-0.2c0.6-0.2,1-0.2,1.8-0.2c0.8,0,1.2,0,2-0.2
		c0.8-0.2,1.4,0,2.2,0c0.6,0,1.2,0,2,0c0.8,0,1.4,0,2,0.2c0.6,0,1.2,0.2,1.8,0.2c0.6,0.2,1,0.2,1.4,0.2c2-1.4,3.8-2.4,5.4-3.2
		c1.6-0.8,3-1.4,4-1.8c1.2-0.4,2-0.6,2.6-0.8c0.6-0.2,1-0.2,1-0.2c0.6,1.4,1,2.8,1.2,4.2c0.4,1.4,0.6,2.6,0.6,3.8
		c0,1.2,0.2,2.2,0.2,3C471.7,39.2,471.7,39.6,471.5,40z M449.7,69.3c2.8,0,5.2-0.2,7.6-0.4c2.4-0.2,4.4-0.8,6-1.6c1.6-0.8,3-2,4-3.6
		c1-1.6,1.4-3.6,1.6-6.2c0-0.6-0.2-1.2-0.2-1.8c0-0.6-0.2-1.2-0.6-1.8c-0.2-0.6-0.6-1.2-0.8-1.6c-0.4-0.6-0.8-1-1.4-1.4
		c-0.8-0.8-1.8-1.4-3-1.6s-2.4-0.4-3.8-0.4c-1.4,0-2.8,0-4.4,0.2s-3.2,0.2-4.8,0.2h-0.2l0,0l0,0l0,0l0,0l0,0l0,0
		c-1.8,0-3.4,0-4.8-0.2c-1.6-0.2-3-0.2-4.4-0.2c-1.4,0-2.8,0.2-3.8,0.4c-1.2,0.2-2.2,0.8-3.2,1.6c-0.4,0.4-0.8,1-1.2,1.4
		c-0.4,0.4-0.8,1-0.8,1.6c-0.2,0.6-0.4,1.2-0.6,1.8c-0.2,0.6-0.2,1.2-0.2,1.8c0,2.6,0.4,4.6,1.4,6.2s2.4,2.8,4,3.6
		c1.6,0.8,3.8,1.4,6,1.6c2.4,0.2,4.8,0.4,7.4,0.4H449.7L449.7,69.3z M440.8,53.3c0.4,0,1,0.2,1.4,0.4c0.4,0.2,0.8,0.6,1.2,1.2
		c0.4,0.6,0.6,1,0.8,1.6c0.2,0.6,0.2,1.2,0.2,2s0,1.4-0.2,2c-0.2,0.6-0.4,1.2-0.8,1.6c-0.2,0.4-0.6,0.8-1.2,1
		c-0.4,0.2-1,0.4-1.4,0.4c-0.6,0-1-0.2-1.6-0.4c-0.4-0.2-0.8-0.6-1.2-1c-0.4-0.4-0.6-1-0.8-1.6c-0.2-0.6-0.4-1.4-0.4-2
		s0.2-1.4,0.4-2c0.2-0.6,0.4-1.2,0.8-1.6c0.4-0.4,0.8-0.8,1.2-1.2C439.6,53.3,440.2,53.3,440.8,53.3z M458.7,53.3
		c0.4,0,1,0.2,1.4,0.4c0.4,0.2,0.8,0.6,1.2,1.2c0.4,0.6,0.6,1,0.8,1.6c0.2,0.6,0.4,1.2,0.2,2c0,0.8,0,1.4-0.2,2
		c-0.2,0.6-0.6,1.2-0.8,1.6c-0.2,0.4-0.6,0.8-1.2,1c-0.4,0.2-1,0.4-1.4,0.4c-0.6,0-1-0.2-1.4-0.4c-0.4-0.2-0.8-0.6-1.2-1
		c-0.4-0.4-0.6-1-0.8-1.6c-0.2-0.6-0.2-1.4-0.4-2c0-0.6,0.2-1.4,0.4-2c0.2-0.6,0.4-1.2,0.8-1.6c0.4-0.4,0.8-0.8,1.2-1.2
		C457.7,53.3,458.1,53.3,458.7,53.3z"/>
</g>
</svg>
